<svg viewBox="0 0 122 38" fill="none" xmlns="http://www.w3.org/2000/svg">
<path d="M121.5 37.5H39.505L1.23647 0.5H47.1717H121.5V37.5Z" fill="white" stroke="#009247"/>
<path d="M58.793 19.2617C58.793 20.6549 58.5521 21.8789 58.0703 22.9336C57.5885 23.9818 56.8984 24.7891 56 25.3555C55.1081 25.9154 54.0794 26.1953 52.9141 26.1953C51.7617 26.1953 50.7331 25.9154 49.8281 25.3555C48.9297 24.7891 48.2331 23.985 47.7383 22.9434C47.25 21.9017 47.0026 20.7005 46.9961 19.3398V18.5391C46.9961 17.1523 47.2402 15.9284 47.7285 14.8672C48.2233 13.806 48.9167 12.9954 49.8086 12.4355C50.707 11.8691 51.7357 11.5859 52.8945 11.5859C54.0534 11.5859 55.0788 11.8659 55.9707 12.4258C56.8691 12.9792 57.5625 13.7799 58.0508 14.8281C58.5391 15.8698 58.7865 17.084 58.793 18.4707V19.2617ZM56.3223 18.5195C56.3223 16.944 56.0228 15.7363 55.4238 14.8965C54.8314 14.0566 53.9883 13.6367 52.8945 13.6367C51.8268 13.6367 50.9902 14.0566 50.3848 14.8965C49.7858 15.7298 49.4798 16.9115 49.4668 18.4414V19.2617C49.4668 20.8242 49.7695 22.0319 50.375 22.8848C50.987 23.7376 51.8333 24.1641 52.9141 24.1641C54.0078 24.1641 54.8477 23.7474 55.4336 22.9141C56.026 22.0807 56.3223 20.8633 56.3223 19.2617V18.5195ZM72.5332 26H70.0625L63.7246 15.9121V26H61.2539V11.7812H63.7246L70.082 21.9082V11.7812H72.5332V26ZM77.9238 24.0273H84.3789V26H75.4531V11.7812H77.9238V24.0273ZM88.8809 26H86.4199V11.7812H88.8809V26ZM103.197 26H100.727L94.3887 15.9121V26H91.918V11.7812H94.3887L100.746 21.9082V11.7812H103.197V26ZM114.428 19.6523H108.588V24.0273H115.414V26H106.117V11.7812H115.346V13.7734H108.588V17.6992H114.428V19.6523Z" fill="#009247"/>
</svg>
