<svg viewBox="0 0 122 38" fill="none" xmlns="http://www.w3.org/2000/svg">
<path d="M0.5 37.5H82.495L120.764 0.5H74.8283H0.5V37.5Z" fill="#CA1717" stroke="#CA1717"/>
<path d="M19.6387 19.9746H13.916V26H11.4453V11.7812H20.4785V13.7734H13.916V18.002H19.6387V19.9746ZM24.9121 24.0273H31.3672V26H22.4414V11.7812H24.9121V24.0273ZM43.9844 19.2617C43.9844 20.6549 43.7435 21.8789 43.2617 22.9336C42.7799 23.9818 42.0898 24.7891 41.1914 25.3555C40.2995 25.9154 39.2708 26.1953 38.1055 26.1953C36.9531 26.1953 35.9245 25.9154 35.0195 25.3555C34.1211 24.7891 33.4245 23.985 32.9297 22.9434C32.4414 21.9017 32.194 20.7005 32.1875 19.3398V18.5391C32.1875 17.1523 32.4316 15.9284 32.9199 14.8672C33.4147 13.806 34.1081 12.9954 35 12.4355C35.8984 11.8691 36.9271 11.5859 38.0859 11.5859C39.2448 11.5859 40.2702 11.8659 41.1621 12.4258C42.0605 12.9792 42.7539 13.7799 43.2422 14.8281C43.7305 15.8698 43.9779 17.084 43.9844 18.4707V19.2617ZM41.5137 18.5195C41.5137 16.944 41.2142 15.7363 40.6152 14.8965C40.0228 14.0566 39.1797 13.6367 38.0859 13.6367C37.0182 13.6367 36.1816 14.0566 35.5762 14.8965C34.9772 15.7298 34.6712 16.9115 34.6582 18.4414V19.2617C34.6582 20.8242 34.9609 22.0319 35.5664 22.8848C36.1784 23.7376 37.0247 24.1641 38.1055 24.1641C39.1992 24.1641 40.0391 23.7474 40.625 22.9141C41.2174 22.0807 41.5137 20.8633 41.5137 19.2617V18.5195ZM57.793 19.2617C57.793 20.6549 57.5521 21.8789 57.0703 22.9336C56.5885 23.9818 55.8984 24.7891 55 25.3555C54.1081 25.9154 53.0794 26.1953 51.9141 26.1953C50.7617 26.1953 49.7331 25.9154 48.8281 25.3555C47.9297 24.7891 47.2331 23.985 46.7383 22.9434C46.25 21.9017 46.0026 20.7005 45.9961 19.3398V18.5391C45.9961 17.1523 46.2402 15.9284 46.7285 14.8672C47.2233 13.806 47.9167 12.9954 48.8086 12.4355C49.707 11.8691 50.7357 11.5859 51.8945 11.5859C53.0534 11.5859 54.0788 11.8659 54.9707 12.4258C55.8691 12.9792 56.5625 13.7799 57.0508 14.8281C57.5391 15.8698 57.7865 17.084 57.793 18.4707V19.2617ZM55.3223 18.5195C55.3223 16.944 55.0228 15.7363 54.4238 14.8965C53.8314 14.0566 52.9883 13.6367 51.8945 13.6367C50.8268 13.6367 49.9902 14.0566 49.3848 14.8965C48.7858 15.7298 48.4798 16.9115 48.4668 18.4414V19.2617C48.4668 20.8242 48.7695 22.0319 49.375 22.8848C49.987 23.7376 50.8333 24.1641 51.9141 24.1641C53.0078 24.1641 53.8477 23.7474 54.4336 22.9141C55.026 22.0807 55.3223 20.8633 55.3223 19.2617V18.5195ZM65.4785 20.5215H62.7246V26H60.2539V11.7812H65.2539C66.8945 11.7812 68.1608 12.1491 69.0527 12.8848C69.9447 13.6204 70.3906 14.6849 70.3906 16.0781C70.3906 17.0286 70.1595 17.8262 69.6973 18.4707C69.2415 19.1087 68.6035 19.6003 67.7832 19.9453L70.9766 25.873V26H68.3301L65.4785 20.5215ZM62.7246 18.5391H65.2637C66.097 18.5391 66.748 18.3307 67.2168 17.9141C67.6855 17.4909 67.9199 16.9147 67.9199 16.1855C67.9199 15.4238 67.7018 14.8346 67.2656 14.418C66.8359 14.0013 66.1914 13.7865 65.332 13.7734H62.7246V18.5391Z" fill="white"/>
</svg>
